<?xml version="1.0" standalone="no"?>
 <!DOCTYPE svg PUBLIC "-//W3C//DTD SVG 1.1//EN" 
 "http://www.w3.org/Graphics/SVG/1.1/DTD/svg11.dtd"> 
<svg
  xmlns:svg="http://www.w3.org/2000/svg"
  xmlns="http://www.w3.org/2000/svg"
  xmlns:xlink="http://www.w3.org/1999/xlink"
  version="1.1"
  width="29.700220cm" height="21.000720cm" viewBox="0 0 116930 82680">
<title>SVG Picture created as 3018Pendant-drl_map.svg date 2022/04/27 20:30:35 </title>
  <desc>Picture generated by PCBNEW </desc>
<g style="fill:#000000; fill-opacity:1;stroke:#000000; stroke-opacity:1;
stroke-linecap:round; stroke-linejoin:round;"
 transform="translate(0 0) scale(1 1)">
</g>
<g style="fill:#000000; fill-opacity:0.0; 
stroke:#000000; stroke-width:-0.000393701; stroke-opacity:1; 
stroke-linecap:round; stroke-linejoin:round;">
</g>
<g style="fill:#000000; fill-opacity:0.0; 
stroke:#000000; stroke-width:39.3701; stroke-opacity:1; 
stroke-linecap:round; stroke-linejoin:round;">
<path d="M70000 25500
L70000 41000
" />
<path d="M39000 25500
L70000 25500
" />
<path d="M44750 41000
L44750 25500
" />
<path d="M70000 41000
L39000 41000
" />
</g>
<g style="fill:#000000; fill-opacity:0.0; 
stroke:#000000; stroke-width:78.7402; stroke-opacity:1; 
stroke-linecap:round; stroke-linejoin:round;">
<path d="M23362 17862
L23637 18137
" />
<path d="M23637 17862
L23362 18137
" />
<path d="M23362 19862
L23637 20137
" />
<path d="M23637 19862
L23362 20137
" />
<path d="M25112 17862
L25387 18137
" />
<path d="M25387 17862
L25112 18137
" />
<path d="M25112 19862
L25387 20137
" />
<path d="M25387 19862
L25112 20137
" />
<path d="M37112 18362
L37387 18637
" />
<path d="M37387 18362
L37112 18637
" />
<path d="M39112 18362
L39387 18637
" />
<path d="M39387 18362
L39112 18637
" />
<circle cx="18547.2" cy="23500" r="157.48" /> 
<circle cx="18547.2" cy="26250" r="157.48" /> 
<circle cx="21500" cy="23500" r="157.48" /> 
<circle cx="21500" cy="26250" r="157.48" /> 
<circle cx="27500" cy="15250" r="157.48" /> 
<circle cx="27500" cy="16250" r="157.48" /> 
<circle cx="27500" cy="17250" r="157.48" /> 
<circle cx="27500" cy="18250" r="157.48" /> 
<circle cx="27500" cy="19250" r="157.48" /> 
<circle cx="27500" cy="20250" r="157.48" /> 
<circle cx="27500" cy="21250" r="157.48" /> 
<circle cx="27500" cy="22250" r="157.48" /> 
<circle cx="27500" cy="23250" r="157.48" /> 
<circle cx="27500" cy="24250" r="157.48" /> 
<circle cx="27500" cy="25250" r="157.48" /> 
<circle cx="27500" cy="26250" r="157.48" /> 
<circle cx="33500" cy="15250" r="157.48" /> 
<circle cx="33500" cy="16250" r="157.48" /> 
<circle cx="33500" cy="17250" r="157.48" /> 
<circle cx="33500" cy="18250" r="157.48" /> 
<circle cx="33500" cy="19250" r="157.48" /> 
<circle cx="33500" cy="20250" r="157.48" /> 
<circle cx="33500" cy="21250" r="157.48" /> 
<circle cx="33500" cy="22250" r="157.48" /> 
<circle cx="33500" cy="23250" r="157.48" /> 
<circle cx="33500" cy="24250" r="157.48" /> 
<circle cx="33500" cy="25250" r="157.48" /> 
<circle cx="33500" cy="26250" r="157.48" /> 
<path d="M39250 20072
L39250 20427
" />
<path d="M39072 20250
L39427 20250
" />
<path d="M39250 21072
L39250 21427
" />
<path d="M39072 21250
L39427 21250
" />
<path style="fill:#000000; fill-opacity:0.0; 
stroke:#000000; stroke-width:78.7402; stroke-opacity:1; 
stroke-linecap:round; stroke-linejoin:round;fill:none"
d="M 18639.2,18889.2
18639.2,18610.8
18360.8,18610.8
18360.8,18889.2
Z" /> 
<path style="fill:#000000; fill-opacity:0.0; 
stroke:#000000; stroke-width:78.7402; stroke-opacity:1; 
stroke-linecap:round; stroke-linejoin:round;fill:none"
d="M 18639.2,19889.2
18639.2,19610.8
18360.8,19610.8
18360.8,19889.2
Z" /> 
<path style="fill:#000000; fill-opacity:0.0; 
stroke:#000000; stroke-width:78.7402; stroke-opacity:1; 
stroke-linecap:round; stroke-linejoin:round;fill:none"
d="M 18639.2,20889.2
18639.2,20610.8
18360.8,20610.8
18360.8,20889.2
Z" /> 
<path style="fill:#000000; fill-opacity:0.0; 
stroke:#000000; stroke-width:78.7402; stroke-opacity:1; 
stroke-linecap:round; stroke-linejoin:round;fill:none"
d="M 20139.2,14389.2
20139.2,14110.8
19860.8,14110.8
19860.8,14389.2
Z" /> 
<path style="fill:#000000; fill-opacity:0.0; 
stroke:#000000; stroke-width:78.7402; stroke-opacity:1; 
stroke-linecap:round; stroke-linejoin:round;fill:none"
d="M 20139.2,15389.2
20139.2,15110.8
19860.8,15110.8
19860.8,15389.2
Z" /> 
<path style="fill:#000000; fill-opacity:0.0; 
stroke:#000000; stroke-width:78.7402; stroke-opacity:1; 
stroke-linecap:round; stroke-linejoin:round;fill:none"
d="M 21139.2,14389.2
21139.2,14110.8
20860.8,14110.8
20860.8,14389.2
Z" /> 
<path style="fill:#000000; fill-opacity:0.0; 
stroke:#000000; stroke-width:78.7402; stroke-opacity:1; 
stroke-linecap:round; stroke-linejoin:round;fill:none"
d="M 21139.2,15389.2
21139.2,15110.8
20860.8,15110.8
20860.8,15389.2
Z" /> 
<path style="fill:#000000; fill-opacity:0.0; 
stroke:#000000; stroke-width:78.7402; stroke-opacity:1; 
stroke-linecap:round; stroke-linejoin:round;fill:none"
d="M 21389.2,20389.2
21389.2,20110.8
21110.8,20110.8
21110.8,20389.2
Z" /> 
<path style="fill:#000000; fill-opacity:0.0; 
stroke:#000000; stroke-width:78.7402; stroke-opacity:1; 
stroke-linecap:round; stroke-linejoin:round;fill:none"
d="M 22139.2,14389.2
22139.2,14110.8
21860.8,14110.8
21860.8,14389.2
Z" /> 
<path style="fill:#000000; fill-opacity:0.0; 
stroke:#000000; stroke-width:78.7402; stroke-opacity:1; 
stroke-linecap:round; stroke-linejoin:round;fill:none"
d="M 22139.2,15389.2
22139.2,15110.8
21860.8,15110.8
21860.8,15389.2
Z" /> 
<path style="fill:#000000; fill-opacity:0.0; 
stroke:#000000; stroke-width:78.7402; stroke-opacity:1; 
stroke-linecap:round; stroke-linejoin:round;fill:none"
d="M 23139.2,14389.2
23139.2,14110.8
22860.8,14110.8
22860.8,14389.2
Z" /> 
<path style="fill:#000000; fill-opacity:0.0; 
stroke:#000000; stroke-width:78.7402; stroke-opacity:1; 
stroke-linecap:round; stroke-linejoin:round;fill:none"
d="M 23139.2,15389.2
23139.2,15110.8
22860.8,15110.8
22860.8,15389.2
Z" /> 
<path style="fill:#000000; fill-opacity:0.0; 
stroke:#000000; stroke-width:78.7402; stroke-opacity:1; 
stroke-linecap:round; stroke-linejoin:round;fill:none"
d="M 23889.2,24389.2
23889.2,24110.8
23610.8,24110.8
23610.8,24389.2
Z" /> 
<path style="fill:#000000; fill-opacity:0.0; 
stroke:#000000; stroke-width:78.7402; stroke-opacity:1; 
stroke-linecap:round; stroke-linejoin:round;fill:none"
d="M 23889.2,25389.2
23889.2,25110.8
23610.8,25110.8
23610.8,25389.2
Z" /> 
<path style="fill:#000000; fill-opacity:0.0; 
stroke:#000000; stroke-width:78.7402; stroke-opacity:1; 
stroke-linecap:round; stroke-linejoin:round;fill:none"
d="M 37139.2,24389.2
37139.2,24110.8
36860.8,24110.8
36860.8,24389.2
Z" /> 
<path style="fill:#000000; fill-opacity:0.0; 
stroke:#000000; stroke-width:78.7402; stroke-opacity:1; 
stroke-linecap:round; stroke-linejoin:round;fill:none"
d="M 37139.2,25389.2
37139.2,25110.8
36860.8,25110.8
36860.8,25389.2
Z" /> 
<path style="fill:#000000; fill-opacity:0.0; 
stroke:#000000; stroke-width:78.7402; stroke-opacity:1; 
stroke-linecap:round; stroke-linejoin:round;fill:none"
d="M 37139.2,26389.2
37139.2,26110.8
36860.8,26110.8
36860.8,26389.2
Z" /> 
<path style="fill:#000000; fill-opacity:0.0; 
stroke:#000000; stroke-width:78.7402; stroke-opacity:1; 
stroke-linecap:round; stroke-linejoin:round;fill:none"
d="M 37389.2,20139.2
37389.2,19860.8
37110.8,19860.8
37110.8,20139.2
Z" /> 
<path style="fill:#000000; fill-opacity:0.0; 
stroke:#000000; stroke-width:78.7402; stroke-opacity:1; 
stroke-linecap:round; stroke-linejoin:round;fill:none"
d="M 37389.2,22139.2
37389.2,21860.8
37110.8,21860.8
37110.8,22139.2
Z" /> 
<path style="fill:#000000; fill-opacity:0.0; 
stroke:#000000; stroke-width:78.7402; stroke-opacity:1; 
stroke-linecap:round; stroke-linejoin:round;fill:none"
d="M 37639.2,14639.2
37639.2,14360.8
37360.8,14360.8
37360.8,14639.2
Z" /> 
<path style="fill:#000000; fill-opacity:0.0; 
stroke:#000000; stroke-width:78.7402; stroke-opacity:1; 
stroke-linecap:round; stroke-linejoin:round;fill:none"
d="M 37639.2,15639.2
37639.2,15360.8
37360.8,15360.8
37360.8,15639.2
Z" /> 
<path style="fill:#000000; fill-opacity:0.0; 
stroke:#000000; stroke-width:78.7402; stroke-opacity:1; 
stroke-linecap:round; stroke-linejoin:round;fill:none"
d="M 37639.2,16639.2
37639.2,16360.8
37360.8,16360.8
37360.8,16639.2
Z" /> 
</g>
<g style="fill:#000000; fill-opacity:0.0; 
stroke:#000000; stroke-width:118.11; stroke-opacity:1; 
stroke-linecap:round; stroke-linejoin:round;">
<text x="787.402" y="1889.76"
textLength="8700.79" font-size="1574.8" lengthAdjust="spacingAndGlyphs"
text-anchor="start" opacity="0">Drill Map:</text>
<path d="M1127 1833
L1127 652
L1408 652
L1577 708
L1690 821
L1746 933
L1802 1158
L1802 1327
L1746 1552
L1690 1664
L1577 1777
L1408 1833
L1127 1833
" />
<path d="M2308 1833
L2308 1046
" />
<path d="M2308 1271
L2365 1158
L2421 1102
L2533 1046
L2646 1046
" />
<path d="M3039 1833
L3039 1046
" />
<path d="M3039 652
L2983 708
L3039 764
L3096 708
L3039 652
L3039 764
" />
<path d="M3771 1833
L3658 1777
L3602 1664
L3602 652
" />
<path d="M4389 1833
L4277 1777
L4221 1664
L4221 652
" />
<path d="M5739 1833
L5739 652
L6133 1496
L6526 652
L6526 1833
" />
<path d="M7595 1833
L7595 1214
L7539 1102
L7426 1046
L7201 1046
L7089 1102
" />
<path d="M7595 1777
L7483 1833
L7201 1833
L7089 1777
L7033 1664
L7033 1552
L7089 1439
L7201 1383
L7483 1383
L7595 1327
" />
<path d="M8158 1046
L8158 2227
" />
<path d="M8158 1102
L8270 1046
L8495 1046
L8607 1102
L8664 1158
L8720 1271
L8720 1608
L8664 1721
L8607 1777
L8495 1833
L8270 1833
L8158 1777
" />
<path d="M9226 1721
L9282 1777
L9226 1833
L9170 1777
L9226 1721
L9226 1833
" />
<path d="M9226 1102
L9282 1158
L9226 1214
L9170 1158
L9226 1102
L9226 1214
" />
<path d="M-275 3641
L0 3917
" />
<path d="M0 3641
L-275 3917
" />
<text x="787.402" y="4370.08"
textLength="27677.2" font-size="1574.8" lengthAdjust="spacingAndGlyphs"
text-anchor="start" opacity="0">0.700mm / 0.0276" (6 holes)</text>
<path d="M1352 3132
L1465 3132
L1577 3188
L1633 3245
L1690 3357
L1746 3582
L1746 3863
L1690 4088
L1633 4201
L1577 4257
L1465 4313
L1352 4313
L1240 4257
L1183 4201
L1127 4088
L1071 3863
L1071 3582
L1127 3357
L1183 3245
L1240 3188
L1352 3132
" />
<path d="M2252 4201
L2308 4257
L2252 4313
L2196 4257
L2252 4201
L2252 4313
" />
<path d="M2702 3132
L3489 3132
L2983 4313
" />
<path d="M4164 3132
L4277 3132
L4389 3188
L4446 3245
L4502 3357
L4558 3582
L4558 3863
L4502 4088
L4446 4201
L4389 4257
L4277 4313
L4164 4313
L4052 4257
L3996 4201
L3939 4088
L3883 3863
L3883 3582
L3939 3357
L3996 3245
L4052 3188
L4164 3132
" />
<path d="M5289 3132
L5402 3132
L5514 3188
L5570 3245
L5627 3357
L5683 3582
L5683 3863
L5627 4088
L5570 4201
L5514 4257
L5402 4313
L5289 4313
L5177 4257
L5120 4201
L5064 4088
L5008 3863
L5008 3582
L5064 3357
L5120 3245
L5177 3188
L5289 3132
" />
<path d="M6189 4313
L6189 3526
" />
<path d="M6189 3638
L6245 3582
L6358 3526
L6526 3526
L6639 3582
L6695 3695
L6695 4313
" />
<path d="M6695 3695
L6751 3582
L6864 3526
L7033 3526
L7145 3582
L7201 3695
L7201 4313
" />
<path d="M7764 4313
L7764 3526
" />
<path d="M7764 3638
L7820 3582
L7933 3526
L8101 3526
L8214 3582
L8270 3695
L8270 4313
" />
<path d="M8270 3695
L8326 3582
L8439 3526
L8607 3526
L8720 3582
L8776 3695
L8776 4313
" />
<path d="M11082 3076
L10070 4595
" />
<path d="M12601 3132
L12713 3132
L12826 3188
L12882 3245
L12938 3357
L12994 3582
L12994 3863
L12938 4088
L12882 4201
L12826 4257
L12713 4313
L12601 4313
L12488 4257
L12432 4201
L12376 4088
L12320 3863
L12320 3582
L12376 3357
L12432 3245
L12488 3188
L12601 3132
" />
<path d="M13501 4201
L13557 4257
L13501 4313
L13444 4257
L13501 4201
L13501 4313
" />
<path d="M14288 3132
L14401 3132
L14513 3188
L14569 3245
L14625 3357
L14682 3582
L14682 3863
L14625 4088
L14569 4201
L14513 4257
L14401 4313
L14288 4313
L14176 4257
L14119 4201
L14063 4088
L14007 3863
L14007 3582
L14063 3357
L14119 3245
L14176 3188
L14288 3132
" />
<path d="M15132 3245
L15188 3188
L15300 3132
L15582 3132
L15694 3188
L15750 3245
L15807 3357
L15807 3470
L15750 3638
L15075 4313
L15807 4313
" />
<path d="M16200 3132
L16988 3132
L16482 4313
" />
<path d="M17944 3132
L17719 3132
L17606 3188
L17550 3245
L17438 3413
L17381 3638
L17381 4088
L17438 4201
L17494 4257
L17606 4313
L17831 4313
L17944 4257
L18000 4201
L18056 4088
L18056 3807
L18000 3695
L17944 3638
L17831 3582
L17606 3582
L17494 3638
L17438 3695
L17381 3807
" />
<path d="M18506 3132
L18506 3357
" />
<path d="M18956 3132
L18956 3357
" />
<path d="M20700 4763
L20643 4707
L20531 4538
L20475 4426
L20419 4257
L20362 3976
L20362 3751
L20419 3470
L20475 3301
L20531 3188
L20643 3020
L20700 2964
" />
<path d="M21656 3132
L21431 3132
L21318 3188
L21262 3245
L21150 3413
L21093 3638
L21093 4088
L21150 4201
L21206 4257
L21318 4313
L21543 4313
L21656 4257
L21712 4201
L21768 4088
L21768 3807
L21712 3695
L21656 3638
L21543 3582
L21318 3582
L21206 3638
L21150 3695
L21093 3807
" />
<path d="M23174 4313
L23174 3132
" />
<path d="M23681 4313
L23681 3695
L23624 3582
L23512 3526
L23343 3526
L23231 3582
L23174 3638
" />
<path d="M24412 4313
L24299 4257
L24243 4201
L24187 4088
L24187 3751
L24243 3638
L24299 3582
L24412 3526
L24580 3526
L24693 3582
L24749 3638
L24805 3751
L24805 4088
L24749 4201
L24693 4257
L24580 4313
L24412 4313
" />
<path d="M25480 4313
L25368 4257
L25312 4145
L25312 3132
" />
<path d="M26380 4257
L26268 4313
L26043 4313
L25930 4257
L25874 4145
L25874 3695
L25930 3582
L26043 3526
L26268 3526
L26380 3582
L26437 3695
L26437 3807
L25874 3920
" />
<path d="M26886 4257
L26999 4313
L27224 4313
L27336 4257
L27393 4145
L27393 4088
L27336 3976
L27224 3920
L27055 3920
L26943 3863
L26886 3751
L26886 3695
L26943 3582
L27055 3526
L27224 3526
L27336 3582
" />
<path d="M27786 4763
L27843 4707
L27955 4538
L28011 4426
L28068 4257
L28124 3976
L28124 3751
L28068 3470
L28011 3301
L27955 3188
L27843 3020
L27786 2964
" />
<circle cx="-157.48" cy="5338.58" r="157.48" /> 
<text x="787.402" y="5929.13"
textLength="28802" font-size="1574.8" lengthAdjust="spacingAndGlyphs"
text-anchor="start" opacity="0">0.800mm / 0.0315" (28 holes)</text>
<path d="M1352 4691
L1465 4691
L1577 4748
L1633 4804
L1690 4916
L1746 5141
L1746 5422
L1690 5647
L1633 5760
L1577 5816
L1465 5872
L1352 5872
L1240 5816
L1183 5760
L1127 5647
L1071 5422
L1071 5141
L1127 4916
L1183 4804
L1240 4748
L1352 4691
" />
<path d="M2252 5760
L2308 5816
L2252 5872
L2196 5816
L2252 5760
L2252 5872
" />
<path d="M2983 5197
L2871 5141
L2814 5085
L2758 4973
L2758 4916
L2814 4804
L2871 4748
L2983 4691
L3208 4691
L3321 4748
L3377 4804
L3433 4916
L3433 4973
L3377 5085
L3321 5141
L3208 5197
L2983 5197
L2871 5254
L2814 5310
L2758 5422
L2758 5647
L2814 5760
L2871 5816
L2983 5872
L3208 5872
L3321 5816
L3377 5760
L3433 5647
L3433 5422
L3377 5310
L3321 5254
L3208 5197
" />
<path d="M4164 4691
L4277 4691
L4389 4748
L4446 4804
L4502 4916
L4558 5141
L4558 5422
L4502 5647
L4446 5760
L4389 5816
L4277 5872
L4164 5872
L4052 5816
L3996 5760
L3939 5647
L3883 5422
L3883 5141
L3939 4916
L3996 4804
L4052 4748
L4164 4691
" />
<path d="M5289 4691
L5402 4691
L5514 4748
L5570 4804
L5627 4916
L5683 5141
L5683 5422
L5627 5647
L5570 5760
L5514 5816
L5402 5872
L5289 5872
L5177 5816
L5120 5760
L5064 5647
L5008 5422
L5008 5141
L5064 4916
L5120 4804
L5177 4748
L5289 4691
" />
<path d="M6189 5872
L6189 5085
" />
<path d="M6189 5197
L6245 5141
L6358 5085
L6526 5085
L6639 5141
L6695 5254
L6695 5872
" />
<path d="M6695 5254
L6751 5141
L6864 5085
L7033 5085
L7145 5141
L7201 5254
L7201 5872
" />
<path d="M7764 5872
L7764 5085
" />
<path d="M7764 5197
L7820 5141
L7933 5085
L8101 5085
L8214 5141
L8270 5254
L8270 5872
" />
<path d="M8270 5254
L8326 5141
L8439 5085
L8607 5085
L8720 5141
L8776 5254
L8776 5872
" />
<path d="M11082 4635
L10070 6154
" />
<path d="M12601 4691
L12713 4691
L12826 4748
L12882 4804
L12938 4916
L12994 5141
L12994 5422
L12938 5647
L12882 5760
L12826 5816
L12713 5872
L12601 5872
L12488 5816
L12432 5760
L12376 5647
L12320 5422
L12320 5141
L12376 4916
L12432 4804
L12488 4748
L12601 4691
" />
<path d="M13501 5760
L13557 5816
L13501 5872
L13444 5816
L13501 5760
L13501 5872
" />
<path d="M14288 4691
L14401 4691
L14513 4748
L14569 4804
L14625 4916
L14682 5141
L14682 5422
L14625 5647
L14569 5760
L14513 5816
L14401 5872
L14288 5872
L14176 5816
L14119 5760
L14063 5647
L14007 5422
L14007 5141
L14063 4916
L14119 4804
L14176 4748
L14288 4691
" />
<path d="M15075 4691
L15807 4691
L15413 5141
L15582 5141
L15694 5197
L15750 5254
L15807 5366
L15807 5647
L15750 5760
L15694 5816
L15582 5872
L15244 5872
L15132 5816
L15075 5760
" />
<path d="M16931 5872
L16257 5872
" />
<path d="M16594 5872
L16594 4691
L16482 4860
L16369 4973
L16257 5029
" />
<path d="M18000 4691
L17438 4691
L17381 5254
L17438 5197
L17550 5141
L17831 5141
L17944 5197
L18000 5254
L18056 5366
L18056 5647
L18000 5760
L17944 5816
L17831 5872
L17550 5872
L17438 5816
L17381 5760
" />
<path d="M18506 4691
L18506 4916
" />
<path d="M18956 4691
L18956 4916
" />
<path d="M20700 6322
L20643 6266
L20531 6097
L20475 5985
L20419 5816
L20362 5535
L20362 5310
L20419 5029
L20475 4860
L20531 4748
L20643 4579
L20700 4523
" />
<path d="M21093 4804
L21150 4748
L21262 4691
L21543 4691
L21656 4748
L21712 4804
L21768 4916
L21768 5029
L21712 5197
L21037 5872
L21768 5872
" />
<path d="M22443 5197
L22331 5141
L22275 5085
L22218 4973
L22218 4916
L22275 4804
L22331 4748
L22443 4691
L22668 4691
L22781 4748
L22837 4804
L22893 4916
L22893 4973
L22837 5085
L22781 5141
L22668 5197
L22443 5197
L22331 5254
L22275 5310
L22218 5422
L22218 5647
L22275 5760
L22331 5816
L22443 5872
L22668 5872
L22781 5816
L22837 5760
L22893 5647
L22893 5422
L22837 5310
L22781 5254
L22668 5197
" />
<path d="M24299 5872
L24299 4691
" />
<path d="M24805 5872
L24805 5254
L24749 5141
L24637 5085
L24468 5085
L24356 5141
L24299 5197
" />
<path d="M25537 5872
L25424 5816
L25368 5760
L25312 5647
L25312 5310
L25368 5197
L25424 5141
L25537 5085
L25705 5085
L25818 5141
L25874 5197
L25930 5310
L25930 5647
L25874 5760
L25818 5816
L25705 5872
L25537 5872
" />
<path d="M26605 5872
L26493 5816
L26437 5704
L26437 4691
" />
<path d="M27505 5816
L27393 5872
L27168 5872
L27055 5816
L26999 5704
L26999 5254
L27055 5141
L27168 5085
L27393 5085
L27505 5141
L27561 5254
L27561 5366
L26999 5479
" />
<path d="M28011 5816
L28124 5872
L28349 5872
L28461 5816
L28517 5704
L28517 5647
L28461 5535
L28349 5479
L28180 5479
L28068 5422
L28011 5310
L28011 5254
L28068 5141
L28180 5085
L28349 5085
L28461 5141
" />
<path d="M28911 6322
L28967 6266
L29080 6097
L29136 5985
L29192 5816
L29249 5535
L29249 5310
L29192 5029
L29136 4860
L29080 4748
L28967 4579
L28911 4523
" />
<path d="M-177 6720
L-177 7074
" />
<path d="M-354 6897
L0 6897
" />
<text x="787.402" y="7488.19"
textLength="27677.2" font-size="1574.8" lengthAdjust="spacingAndGlyphs"
text-anchor="start" opacity="0">0.900mm / 0.0354" (2 holes)</text>
<path d="M1352 6250
L1465 6250
L1577 6307
L1633 6363
L1690 6475
L1746 6700
L1746 6982
L1690 7206
L1633 7319
L1577 7375
L1465 7431
L1352 7431
L1240 7375
L1183 7319
L1127 7206
L1071 6982
L1071 6700
L1127 6475
L1183 6363
L1240 6307
L1352 6250
" />
<path d="M2252 7319
L2308 7375
L2252 7431
L2196 7375
L2252 7319
L2252 7431
" />
<path d="M2871 7431
L3096 7431
L3208 7375
L3264 7319
L3377 7150
L3433 6925
L3433 6475
L3377 6363
L3321 6307
L3208 6250
L2983 6250
L2871 6307
L2814 6363
L2758 6475
L2758 6757
L2814 6869
L2871 6925
L2983 6982
L3208 6982
L3321 6925
L3377 6869
L3433 6757
" />
<path d="M4164 6250
L4277 6250
L4389 6307
L4446 6363
L4502 6475
L4558 6700
L4558 6982
L4502 7206
L4446 7319
L4389 7375
L4277 7431
L4164 7431
L4052 7375
L3996 7319
L3939 7206
L3883 6982
L3883 6700
L3939 6475
L3996 6363
L4052 6307
L4164 6250
" />
<path d="M5289 6250
L5402 6250
L5514 6307
L5570 6363
L5627 6475
L5683 6700
L5683 6982
L5627 7206
L5570 7319
L5514 7375
L5402 7431
L5289 7431
L5177 7375
L5120 7319
L5064 7206
L5008 6982
L5008 6700
L5064 6475
L5120 6363
L5177 6307
L5289 6250
" />
<path d="M6189 7431
L6189 6644
" />
<path d="M6189 6757
L6245 6700
L6358 6644
L6526 6644
L6639 6700
L6695 6813
L6695 7431
" />
<path d="M6695 6813
L6751 6700
L6864 6644
L7033 6644
L7145 6700
L7201 6813
L7201 7431
" />
<path d="M7764 7431
L7764 6644
" />
<path d="M7764 6757
L7820 6700
L7933 6644
L8101 6644
L8214 6700
L8270 6813
L8270 7431
" />
<path d="M8270 6813
L8326 6700
L8439 6644
L8607 6644
L8720 6700
L8776 6813
L8776 7431
" />
<path d="M11082 6194
L10070 7713
" />
<path d="M12601 6250
L12713 6250
L12826 6307
L12882 6363
L12938 6475
L12994 6700
L12994 6982
L12938 7206
L12882 7319
L12826 7375
L12713 7431
L12601 7431
L12488 7375
L12432 7319
L12376 7206
L12320 6982
L12320 6700
L12376 6475
L12432 6363
L12488 6307
L12601 6250
" />
<path d="M13501 7319
L13557 7375
L13501 7431
L13444 7375
L13501 7319
L13501 7431
" />
<path d="M14288 6250
L14401 6250
L14513 6307
L14569 6363
L14625 6475
L14682 6700
L14682 6982
L14625 7206
L14569 7319
L14513 7375
L14401 7431
L14288 7431
L14176 7375
L14119 7319
L14063 7206
L14007 6982
L14007 6700
L14063 6475
L14119 6363
L14176 6307
L14288 6250
" />
<path d="M15075 6250
L15807 6250
L15413 6700
L15582 6700
L15694 6757
L15750 6813
L15807 6925
L15807 7206
L15750 7319
L15694 7375
L15582 7431
L15244 7431
L15132 7375
L15075 7319
" />
<path d="M16875 6250
L16313 6250
L16257 6813
L16313 6757
L16425 6700
L16706 6700
L16819 6757
L16875 6813
L16931 6925
L16931 7206
L16875 7319
L16819 7375
L16706 7431
L16425 7431
L16313 7375
L16257 7319
" />
<path d="M17944 6644
L17944 7431
" />
<path d="M17663 6194
L17381 7038
L18113 7038
" />
<path d="M18506 6250
L18506 6475
" />
<path d="M18956 6250
L18956 6475
" />
<path d="M20700 7881
L20643 7825
L20531 7656
L20475 7544
L20419 7375
L20362 7094
L20362 6869
L20419 6588
L20475 6419
L20531 6307
L20643 6138
L20700 6082
" />
<path d="M21093 6363
L21150 6307
L21262 6250
L21543 6250
L21656 6307
L21712 6363
L21768 6475
L21768 6588
L21712 6757
L21037 7431
L21768 7431
" />
<path d="M23174 7431
L23174 6250
" />
<path d="M23681 7431
L23681 6813
L23624 6700
L23512 6644
L23343 6644
L23231 6700
L23174 6757
" />
<path d="M24412 7431
L24299 7375
L24243 7319
L24187 7206
L24187 6869
L24243 6757
L24299 6700
L24412 6644
L24580 6644
L24693 6700
L24749 6757
L24805 6869
L24805 7206
L24749 7319
L24693 7375
L24580 7431
L24412 7431
" />
<path d="M25480 7431
L25368 7375
L25312 7263
L25312 6250
" />
<path d="M26380 7375
L26268 7431
L26043 7431
L25930 7375
L25874 7263
L25874 6813
L25930 6700
L26043 6644
L26268 6644
L26380 6700
L26437 6813
L26437 6925
L25874 7038
" />
<path d="M26886 7375
L26999 7431
L27224 7431
L27336 7375
L27393 7263
L27393 7206
L27336 7094
L27224 7038
L27055 7038
L26943 6982
L26886 6869
L26886 6813
L26943 6700
L27055 6644
L27224 6644
L27336 6700
" />
<path d="M27786 7881
L27843 7825
L27955 7656
L28011 7544
L28068 7375
L28124 7094
L28124 6869
L28068 6588
L28011 6419
L27955 6307
L27843 6138
L27786 6082
" />
<path style="fill:#000000; fill-opacity:0.0; 
stroke:#000000; stroke-width:118.11; stroke-opacity:1; 
stroke-linecap:round; stroke-linejoin:round;fill:none"
d="M -57.6547,8595.89
-57.6547,8317.5
-336.046,8317.5
-336.046,8595.89
Z" /> 
<text x="787.402" y="9047.24"
textLength="28802" font-size="1574.8" lengthAdjust="spacingAndGlyphs"
text-anchor="start" opacity="0">1.000mm / 0.0394" (22 holes)</text>
<path d="M1746 8991
L1071 8991
" />
<path d="M1408 8991
L1408 7809
L1296 7978
L1183 8091
L1071 8147
" />
<path d="M2252 8878
L2308 8934
L2252 8991
L2196 8934
L2252 8878
L2252 8991
" />
<path d="M3039 7809
L3152 7809
L3264 7866
L3321 7922
L3377 8034
L3433 8259
L3433 8541
L3377 8766
L3321 8878
L3264 8934
L3152 8991
L3039 8991
L2927 8934
L2871 8878
L2814 8766
L2758 8541
L2758 8259
L2814 8034
L2871 7922
L2927 7866
L3039 7809
" />
<path d="M4164 7809
L4277 7809
L4389 7866
L4446 7922
L4502 8034
L4558 8259
L4558 8541
L4502 8766
L4446 8878
L4389 8934
L4277 8991
L4164 8991
L4052 8934
L3996 8878
L3939 8766
L3883 8541
L3883 8259
L3939 8034
L3996 7922
L4052 7866
L4164 7809
" />
<path d="M5289 7809
L5402 7809
L5514 7866
L5570 7922
L5627 8034
L5683 8259
L5683 8541
L5627 8766
L5570 8878
L5514 8934
L5402 8991
L5289 8991
L5177 8934
L5120 8878
L5064 8766
L5008 8541
L5008 8259
L5064 8034
L5120 7922
L5177 7866
L5289 7809
" />
<path d="M6189 8991
L6189 8203
" />
<path d="M6189 8316
L6245 8259
L6358 8203
L6526 8203
L6639 8259
L6695 8372
L6695 8991
" />
<path d="M6695 8372
L6751 8259
L6864 8203
L7033 8203
L7145 8259
L7201 8372
L7201 8991
" />
<path d="M7764 8991
L7764 8203
" />
<path d="M7764 8316
L7820 8259
L7933 8203
L8101 8203
L8214 8259
L8270 8372
L8270 8991
" />
<path d="M8270 8372
L8326 8259
L8439 8203
L8607 8203
L8720 8259
L8776 8372
L8776 8991
" />
<path d="M11082 7753
L10070 9272
" />
<path d="M12601 7809
L12713 7809
L12826 7866
L12882 7922
L12938 8034
L12994 8259
L12994 8541
L12938 8766
L12882 8878
L12826 8934
L12713 8991
L12601 8991
L12488 8934
L12432 8878
L12376 8766
L12320 8541
L12320 8259
L12376 8034
L12432 7922
L12488 7866
L12601 7809
" />
<path d="M13501 8878
L13557 8934
L13501 8991
L13444 8934
L13501 8878
L13501 8991
" />
<path d="M14288 7809
L14401 7809
L14513 7866
L14569 7922
L14625 8034
L14682 8259
L14682 8541
L14625 8766
L14569 8878
L14513 8934
L14401 8991
L14288 8991
L14176 8934
L14119 8878
L14063 8766
L14007 8541
L14007 8259
L14063 8034
L14119 7922
L14176 7866
L14288 7809
" />
<path d="M15075 7809
L15807 7809
L15413 8259
L15582 8259
L15694 8316
L15750 8372
L15807 8484
L15807 8766
L15750 8878
L15694 8934
L15582 8991
L15244 8991
L15132 8934
L15075 8878
" />
<path d="M16369 8991
L16594 8991
L16706 8934
L16763 8878
L16875 8709
L16931 8484
L16931 8034
L16875 7922
L16819 7866
L16706 7809
L16482 7809
L16369 7866
L16313 7922
L16257 8034
L16257 8316
L16313 8428
L16369 8484
L16482 8541
L16706 8541
L16819 8484
L16875 8428
L16931 8316
" />
<path d="M17944 8203
L17944 8991
" />
<path d="M17663 7753
L17381 8597
L18113 8597
" />
<path d="M18506 7809
L18506 8034
" />
<path d="M18956 7809
L18956 8034
" />
<path d="M20700 9440
L20643 9384
L20531 9215
L20475 9103
L20419 8934
L20362 8653
L20362 8428
L20419 8147
L20475 7978
L20531 7866
L20643 7697
L20700 7641
" />
<path d="M21093 7922
L21150 7866
L21262 7809
L21543 7809
L21656 7866
L21712 7922
L21768 8034
L21768 8147
L21712 8316
L21037 8991
L21768 8991
" />
<path d="M22218 7922
L22275 7866
L22387 7809
L22668 7809
L22781 7866
L22837 7922
L22893 8034
L22893 8147
L22837 8316
L22162 8991
L22893 8991
" />
<path d="M24299 8991
L24299 7809
" />
<path d="M24805 8991
L24805 8372
L24749 8259
L24637 8203
L24468 8203
L24356 8259
L24299 8316
" />
<path d="M25537 8991
L25424 8934
L25368 8878
L25312 8766
L25312 8428
L25368 8316
L25424 8259
L25537 8203
L25705 8203
L25818 8259
L25874 8316
L25930 8428
L25930 8766
L25874 8878
L25818 8934
L25705 8991
L25537 8991
" />
<path d="M26605 8991
L26493 8934
L26437 8822
L26437 7809
" />
<path d="M27505 8934
L27393 8991
L27168 8991
L27055 8934
L26999 8822
L26999 8372
L27055 8259
L27168 8203
L27393 8203
L27505 8259
L27561 8372
L27561 8484
L26999 8597
" />
<path d="M28011 8934
L28124 8991
L28349 8991
L28461 8934
L28517 8822
L28517 8766
L28461 8653
L28349 8597
L28180 8597
L28068 8541
L28011 8428
L28011 8372
L28068 8259
L28180 8203
L28349 8203
L28461 8259
" />
<path d="M28911 9440
L28967 9384
L29080 9215
L29136 9103
L29192 8934
L29249 8653
L29249 8428
L29192 8147
L29136 7978
L29080 7866
L28967 7697
L28911 7641
" />
</g> 
</svg>
