%TF.GenerationSoftware,KiCad,Pcbnew,(5.1.10)-1*%
%TF.CreationDate,2022-01-27T18:00:35-05:00*%
%TF.ProjectId,3018Pendant,33303138-5065-46e6-9461-6e742e6b6963,rev?*%
%TF.SameCoordinates,Original*%
%TF.FileFunction,Copper,L2,Bot*%
%TF.FilePolarity,Positive*%
%FSLAX46Y46*%
G04 Gerber Fmt 4.6, Leading zero omitted, Abs format (unit mm)*
G04 Created by KiCad (PCBNEW (5.1.10)-1) date 2022-01-27 18:00:35*
%MOMM*%
%LPD*%
G01*
G04 APERTURE LIST*
%TA.AperFunction,ComponentPad*%
%ADD10C,2.000000*%
%TD*%
%TA.AperFunction,ComponentPad*%
%ADD11O,2.500000X1.800000*%
%TD*%
%TA.AperFunction,ComponentPad*%
%ADD12R,2.500000X1.800000*%
%TD*%
%TA.AperFunction,ComponentPad*%
%ADD13R,2.000000X2.000000*%
%TD*%
%TA.AperFunction,ComponentPad*%
%ADD14C,1.700000*%
%TD*%
%TA.AperFunction,ComponentPad*%
%ADD15O,2.500000X1.700000*%
%TD*%
%TA.AperFunction,ComponentPad*%
%ADD16R,2.500000X1.700000*%
%TD*%
%TA.AperFunction,ComponentPad*%
%ADD17O,3.000000X1.700000*%
%TD*%
%TA.AperFunction,ComponentPad*%
%ADD18R,3.000000X1.700000*%
%TD*%
%TA.AperFunction,ComponentPad*%
%ADD19O,3.000000X1.600000*%
%TD*%
%TA.AperFunction,ComponentPad*%
%ADD20R,3.000000X1.600000*%
%TD*%
%TA.AperFunction,ComponentPad*%
%ADD21O,3.000000X3.000000*%
%TD*%
%TA.AperFunction,Conductor*%
%ADD22C,0.800000*%
%TD*%
G04 APERTURE END LIST*
D10*
%TO.P,R3,2*%
%TO.N,Net-(R3-Pad2)*%
X94615000Y-46990000D03*
%TO.P,R3,1*%
%TO.N,Net-(D1-Pad2)*%
X99695000Y-46990000D03*
%TD*%
D11*
%TO.P,D1,2*%
%TO.N,Net-(D1-Pad2)*%
X99695000Y-51435000D03*
D12*
%TO.P,D1,1*%
%TO.N,GND*%
X99695000Y-53975000D03*
%TD*%
D10*
%TO.P,R2,2*%
%TO.N,Net-(R2-Pad2)*%
X59690000Y-50800000D03*
%TO.P,R2,1*%
%TO.N,Net-(J1-Pad7)*%
X59690000Y-45720000D03*
%TD*%
%TO.P,R1,2*%
%TO.N,GND*%
X64135000Y-50800000D03*
%TO.P,R1,1*%
%TO.N,Net-(J1-Pad7)*%
X64135000Y-45720000D03*
%TD*%
D13*
%TO.P,J8,1*%
%TO.N,Net-(J1-Pad5)*%
X53975000Y-51435000D03*
%TD*%
D14*
%TO.P,J1,8*%
%TO.N,Net-(J1-Pad8)*%
X58420000Y-36195000D03*
%TO.P,J1,6*%
%TO.N,Net-(J1-Pad6)*%
X55880000Y-36195000D03*
%TO.P,J1,4*%
%TO.N,GND*%
X53340000Y-36195000D03*
%TO.P,J1,2*%
%TO.N,Vcc*%
X50800000Y-36195000D03*
%TO.P,J1,7*%
%TO.N,Net-(J1-Pad7)*%
X58420000Y-38735000D03*
%TO.P,J1,5*%
%TO.N,Net-(J1-Pad5)*%
X55880000Y-38735000D03*
%TO.P,J1,3*%
%TO.N,GND*%
X53340000Y-38735000D03*
%TO.P,J1,1*%
%TO.N,Vcc*%
%TA.AperFunction,ComponentPad*%
G36*
G01*
X51400000Y-39585000D02*
X50200000Y-39585000D01*
G75*
G02*
X49950000Y-39335000I0J250000D01*
G01*
X49950000Y-38135000D01*
G75*
G02*
X50200000Y-37885000I250000J0D01*
G01*
X51400000Y-37885000D01*
G75*
G02*
X51650000Y-38135000I0J-250000D01*
G01*
X51650000Y-39335000D01*
G75*
G02*
X51400000Y-39585000I-250000J0D01*
G01*
G37*
%TD.AperFunction*%
%TD*%
D15*
%TO.P,J7,3*%
%TO.N,Net-(J7-Pad3)*%
X93980000Y-66675000D03*
%TO.P,J7,2*%
%TO.N,Net-(J7-Pad2)*%
X93980000Y-64135000D03*
D16*
%TO.P,J7,1*%
%TO.N,Net-(J7-Pad1)*%
X93980000Y-61595000D03*
%TD*%
D13*
%TO.P,J6,1*%
%TO.N,Net-(J6-Pad1)*%
X94615000Y-55880000D03*
%TD*%
D17*
%TO.P,J5,2*%
%TO.N,Net-(C2-Pad1)*%
X60325000Y-64135000D03*
D18*
%TO.P,J5,1*%
%TO.N,Net-(C1-Pad1)*%
X60325000Y-61595000D03*
%TD*%
D13*
%TO.P,J2,1*%
%TO.N,Net-(J2-Pad1)*%
X94615000Y-50800000D03*
%TD*%
D19*
%TO.P,U1,24*%
%TO.N,Net-(U1-Pad24)*%
X85590000Y-38735000D03*
%TO.P,U1,23*%
%TO.N,GND*%
X85590000Y-41275000D03*
%TO.P,U1,22*%
%TO.N,Net-(U1-Pad22)*%
X85590000Y-43815000D03*
%TO.P,U1,12*%
%TO.N,Net-(C2-Pad1)*%
X69350000Y-66675000D03*
%TO.P,U1,21*%
%TO.N,Vcc*%
X85590000Y-46355000D03*
%TO.P,U1,11*%
%TO.N,Net-(C1-Pad1)*%
X69350000Y-64135000D03*
%TO.P,U1,20*%
%TO.N,Net-(R3-Pad2)*%
X85590000Y-48895000D03*
%TO.P,U1,10*%
%TO.N,Net-(R2-Pad2)*%
X69350000Y-61595000D03*
%TO.P,U1,19*%
%TO.N,Net-(U1-Pad19)*%
X85590000Y-51435000D03*
%TO.P,U1,9*%
%TO.N,Net-(U1-Pad9)*%
X69350000Y-59055000D03*
%TO.P,U1,18*%
%TO.N,Net-(J2-Pad1)*%
X85590000Y-53975000D03*
%TO.P,U1,8*%
%TO.N,Net-(U1-Pad8)*%
X69350000Y-56515000D03*
%TO.P,U1,17*%
%TO.N,Net-(J6-Pad1)*%
X85590000Y-56515000D03*
%TO.P,U1,7*%
%TO.N,Net-(U1-Pad7)*%
X69350000Y-53975000D03*
%TO.P,U1,16*%
%TO.N,Net-(U1-Pad16)*%
X85590000Y-59055000D03*
%TO.P,U1,6*%
%TO.N,Net-(U1-Pad6)*%
X69350000Y-51435000D03*
%TO.P,U1,15*%
%TO.N,Net-(J7-Pad1)*%
X85590000Y-61595000D03*
%TO.P,U1,5*%
%TO.N,Net-(U1-Pad5)*%
X69350000Y-48895000D03*
%TO.P,U1,14*%
%TO.N,Net-(J7-Pad2)*%
X85590000Y-64135000D03*
%TO.P,U1,4*%
%TO.N,GND*%
X69350000Y-46355000D03*
%TO.P,U1,13*%
%TO.N,Net-(J7-Pad3)*%
X85590000Y-66675000D03*
%TO.P,U1,3*%
%TO.N,Net-(U1-Pad3)*%
X69350000Y-43815000D03*
%TO.P,U1,2*%
%TO.N,Net-(J1-Pad6)*%
X69350000Y-41275000D03*
D20*
%TO.P,U1,1*%
%TO.N,Net-(J1-Pad8)*%
X69350000Y-38735000D03*
%TD*%
D17*
%TO.P,J4,3*%
%TO.N,Vcc*%
X95250000Y-41910000D03*
%TO.P,J4,2*%
X95250000Y-39370000D03*
D18*
%TO.P,J4,1*%
X95250000Y-36830000D03*
%TD*%
D17*
%TO.P,J3,3*%
%TO.N,GND*%
X46990000Y-52705000D03*
%TO.P,J3,2*%
X46990000Y-50165000D03*
D18*
%TO.P,J3,1*%
X46990000Y-47625000D03*
%TD*%
D21*
%TO.P,C1,2*%
%TO.N,GND*%
X47110000Y-59690000D03*
%TO.P,C1,1*%
%TO.N,Net-(C1-Pad1)*%
X54610000Y-59690000D03*
%TD*%
%TO.P,C2,1*%
%TO.N,Net-(C2-Pad1)*%
X54610000Y-66675000D03*
%TO.P,C2,2*%
%TO.N,GND*%
X47110000Y-66675000D03*
%TD*%
D22*
%TO.N,GND*%
X47110000Y-59690000D02*
X47110000Y-66675000D01*
X53340000Y-36195000D02*
X53340000Y-38735000D01*
X47110000Y-68700000D02*
X47110000Y-66675000D01*
X48260000Y-69850000D02*
X47110000Y-68700000D01*
X73660000Y-69850000D02*
X48260000Y-69850000D01*
X47110000Y-52825000D02*
X46990000Y-52705000D01*
X47110000Y-59690000D02*
X47110000Y-52825000D01*
X46990000Y-52705000D02*
X46990000Y-50165000D01*
X46990000Y-50165000D02*
X46990000Y-47625000D01*
X53340000Y-39436507D02*
X53340000Y-38735000D01*
X46990000Y-45786507D02*
X53340000Y-39436507D01*
X46990000Y-47625000D02*
X46990000Y-45786507D01*
X66040000Y-47625000D02*
X67310000Y-46355000D01*
X67310000Y-46355000D02*
X69850000Y-46355000D01*
X66040000Y-50165000D02*
X66040000Y-47625000D01*
X65405000Y-50800000D02*
X66040000Y-50165000D01*
X64135000Y-50800000D02*
X65405000Y-50800000D01*
X98425000Y-69850000D02*
X73660000Y-69850000D01*
X99695000Y-68580000D02*
X98425000Y-69850000D01*
X99695000Y-53975000D02*
X99695000Y-68580000D01*
X75565000Y-69850000D02*
X73660000Y-69850000D01*
X75565000Y-48895000D02*
X75565000Y-69850000D01*
X73025000Y-46355000D02*
X75565000Y-48895000D01*
X69850000Y-46355000D02*
X73025000Y-46355000D01*
%TO.N,Net-(C1-Pad1)*%
X58420000Y-59690000D02*
X60325000Y-61595000D01*
X54610000Y-59690000D02*
X58420000Y-59690000D01*
X60325000Y-61595000D02*
X62865000Y-61595000D01*
X65405000Y-64135000D02*
X69850000Y-64135000D01*
X62865000Y-61595000D02*
X65405000Y-64135000D01*
%TO.N,Net-(C2-Pad1)*%
X60325000Y-64135000D02*
X60325000Y-66675000D01*
X60325000Y-66675000D02*
X69850000Y-66675000D01*
X54610000Y-66675000D02*
X60325000Y-66675000D01*
%TO.N,Vcc*%
X95250000Y-41910000D02*
X95250000Y-39370000D01*
X95250000Y-36830000D02*
X95250000Y-39370000D01*
X85090000Y-46355000D02*
X88505000Y-46355000D01*
X88505000Y-46355000D02*
X92950000Y-41910000D01*
X92950000Y-41910000D02*
X95250000Y-41910000D01*
X50800000Y-38735000D02*
X50800000Y-36195000D01*
X85090000Y-46355000D02*
X81915000Y-46355000D01*
X81915000Y-46355000D02*
X81915000Y-36830000D01*
X81915000Y-36830000D02*
X76835000Y-31750000D01*
X76835000Y-31750000D02*
X52705000Y-31750000D01*
X50800000Y-33655000D02*
X50800000Y-36195000D01*
X52705000Y-31750000D02*
X50800000Y-33655000D01*
%TO.N,Net-(J1-Pad5)*%
X55880000Y-40640000D02*
X55880000Y-38735000D01*
X53975000Y-42545000D02*
X55880000Y-40640000D01*
X53975000Y-51435000D02*
X53975000Y-42545000D01*
%TO.N,Net-(J1-Pad6)*%
X69850000Y-41275000D02*
X73025000Y-41275000D01*
X73025000Y-41275000D02*
X74295000Y-40005000D01*
X74295000Y-40005000D02*
X74295000Y-36830000D01*
X71785011Y-34320011D02*
X57119989Y-34320011D01*
X74295000Y-36830000D02*
X71785011Y-34320011D01*
X57119989Y-34320011D02*
X55880000Y-35560000D01*
%TO.N,Net-(J1-Pad7)*%
X58420000Y-44450000D02*
X59690000Y-45720000D01*
X58420000Y-38735000D02*
X58420000Y-44450000D01*
X59690000Y-45720000D02*
X64135000Y-45720000D01*
%TO.N,Net-(J1-Pad8)*%
X58420000Y-36195000D02*
X62865000Y-36195000D01*
X65405000Y-38735000D02*
X69850000Y-38735000D01*
X62865000Y-36195000D02*
X65405000Y-38735000D01*
%TO.N,Net-(J2-Pad1)*%
X91440000Y-53975000D02*
X85090000Y-53975000D01*
X94615000Y-50800000D02*
X91440000Y-53975000D01*
%TO.N,Net-(J6-Pad1)*%
X93980000Y-56515000D02*
X85090000Y-56515000D01*
X94615000Y-55880000D02*
X93980000Y-56515000D01*
%TO.N,Net-(J7-Pad3)*%
X93980000Y-66675000D02*
X85090000Y-66675000D01*
%TO.N,Net-(J7-Pad2)*%
X93980000Y-64135000D02*
X85090000Y-64135000D01*
%TO.N,Net-(J7-Pad1)*%
X93980000Y-61595000D02*
X85090000Y-61595000D01*
%TO.N,Net-(R2-Pad2)*%
X67310000Y-61595000D02*
X69850000Y-61595000D01*
X59690000Y-53975000D02*
X67310000Y-61595000D01*
X59690000Y-50800000D02*
X59690000Y-53975000D01*
%TO.N,Net-(D1-Pad2)*%
X99695000Y-46990000D02*
X99695000Y-51435000D01*
%TO.N,Net-(R3-Pad2)*%
X91440000Y-46990000D02*
X94615000Y-46990000D01*
X85090000Y-48895000D02*
X89535000Y-48895000D01*
X89535000Y-48895000D02*
X91440000Y-46990000D01*
%TD*%
M02*
