%TF.GenerationSoftware,KiCad,Pcbnew,(5.1.10)-1*%
%TF.CreationDate,2022-01-23T19:08:07-05:00*%
%TF.ProjectId,3018Pendant,33303138-5065-46e6-9461-6e742e6b6963,rev?*%
%TF.SameCoordinates,Original*%
%TF.FileFunction,Copper,L2,Bot*%
%TF.FilePolarity,Positive*%
%FSLAX46Y46*%
G04 Gerber Fmt 4.6, Leading zero omitted, Abs format (unit mm)*
G04 Created by KiCad (PCBNEW (5.1.10)-1) date 2022-01-23 19:08:07*
%MOMM*%
%LPD*%
G01*
G04 APERTURE LIST*
%TA.AperFunction,ComponentPad*%
%ADD10O,3.000000X1.600000*%
%TD*%
%TA.AperFunction,ComponentPad*%
%ADD11R,3.000000X1.600000*%
%TD*%
%TA.AperFunction,ComponentPad*%
%ADD12O,3.000000X1.700000*%
%TD*%
%TA.AperFunction,ComponentPad*%
%ADD13R,3.000000X1.700000*%
%TD*%
%TA.AperFunction,ComponentPad*%
%ADD14O,3.000000X3.000000*%
%TD*%
%TA.AperFunction,ComponentPad*%
%ADD15R,1.700000X3.000000*%
%TD*%
%TA.AperFunction,ComponentPad*%
%ADD16O,1.700000X3.000000*%
%TD*%
%TA.AperFunction,Conductor*%
%ADD17C,0.800000*%
%TD*%
G04 APERTURE END LIST*
D10*
%TO.P,U1,24*%
%TO.N,Net-(U1-Pad24)*%
X106545000Y33655000D03*
%TO.P,U1,23*%
%TO.N,GND*%
X106545000Y31115000D03*
%TO.P,U1,22*%
%TO.N,Net-(U1-Pad22)*%
X106545000Y28575000D03*
%TO.P,U1,12*%
%TO.N,Net-(C2-Pad1)*%
X90305000Y5715000D03*
%TO.P,U1,21*%
%TO.N,Vcc*%
X106545000Y26035000D03*
%TO.P,U1,11*%
%TO.N,Net-(C1-Pad1)*%
X90305000Y8255000D03*
%TO.P,U1,20*%
%TO.N,Net-(U1-Pad20)*%
X106545000Y23495000D03*
%TO.P,U1,10*%
%TO.N,Net-(U1-Pad10)*%
X90305000Y10795000D03*
%TO.P,U1,19*%
%TO.N,Net-(U1-Pad19)*%
X106545000Y20955000D03*
%TO.P,U1,9*%
%TO.N,Net-(U1-Pad9)*%
X90305000Y13335000D03*
%TO.P,U1,18*%
%TO.N,Net-(J2-Pad1)*%
X106545000Y18415000D03*
%TO.P,U1,8*%
%TO.N,Net-(U1-Pad8)*%
X90305000Y15875000D03*
%TO.P,U1,17*%
%TO.N,Net-(J6-Pad1)*%
X106545000Y15875000D03*
%TO.P,U1,7*%
%TO.N,Net-(U1-Pad7)*%
X90305000Y18415000D03*
%TO.P,U1,16*%
%TO.N,Net-(U1-Pad16)*%
X106545000Y13335000D03*
%TO.P,U1,6*%
%TO.N,Net-(U1-Pad6)*%
X90305000Y20955000D03*
%TO.P,U1,15*%
%TO.N,Net-(J7-Pad1)*%
X106545000Y10795000D03*
%TO.P,U1,5*%
%TO.N,Net-(U1-Pad5)*%
X90305000Y23495000D03*
%TO.P,U1,14*%
%TO.N,Net-(J7-Pad2)*%
X106545000Y8255000D03*
%TO.P,U1,4*%
%TO.N,GND*%
X90305000Y26035000D03*
%TO.P,U1,13*%
%TO.N,Net-(J7-Pad3)*%
X106545000Y5715000D03*
%TO.P,U1,3*%
%TO.N,Net-(U1-Pad3)*%
X90305000Y28575000D03*
%TO.P,U1,2*%
%TO.N,Net-(J1-Pad5)*%
X90305000Y31115000D03*
D11*
%TO.P,U1,1*%
%TO.N,Net-(J1-Pad7)*%
X90305000Y33655000D03*
%TD*%
D12*
%TO.P,J7,3*%
%TO.N,Net-(J7-Pad3)*%
X114935000Y5715000D03*
%TO.P,J7,2*%
%TO.N,Net-(J7-Pad2)*%
X114935000Y8255000D03*
D13*
%TO.P,J7,1*%
%TO.N,Net-(J7-Pad1)*%
X114935000Y10795000D03*
%TD*%
D14*
%TO.P,J6,1*%
%TO.N,Net-(J6-Pad1)*%
X115570000Y16510000D03*
%TD*%
D12*
%TO.P,J5,2*%
%TO.N,Net-(C2-Pad1)*%
X81280000Y8255000D03*
D13*
%TO.P,J5,1*%
%TO.N,Net-(C1-Pad1)*%
X81280000Y10795000D03*
%TD*%
D14*
%TO.P,J2,1*%
%TO.N,Net-(J2-Pad1)*%
X115570000Y21590000D03*
%TD*%
D12*
%TO.P,J4,3*%
%TO.N,Vcc*%
X116205000Y30480000D03*
%TO.P,J4,2*%
X116205000Y33020000D03*
D13*
%TO.P,J4,1*%
X116205000Y35560000D03*
%TD*%
D12*
%TO.P,J3,3*%
%TO.N,GND*%
X71755000Y19685000D03*
%TO.P,J3,2*%
X71755000Y22225000D03*
D13*
%TO.P,J3,1*%
X71755000Y24765000D03*
%TD*%
D14*
%TO.P,C1,2*%
%TO.N,GND*%
X68065000Y12700000D03*
%TO.P,C1,1*%
%TO.N,Net-(C1-Pad1)*%
X75565000Y12700000D03*
%TD*%
%TO.P,C2,1*%
%TO.N,Net-(C2-Pad1)*%
X75565000Y5715000D03*
%TO.P,C2,2*%
%TO.N,GND*%
X68065000Y5715000D03*
%TD*%
D15*
%TO.P,J1,1*%
%TO.N,Vcc*%
X71755000Y34255000D03*
D16*
%TO.P,J1,2*%
X71755000Y30515000D03*
%TO.P,J1,3*%
%TO.N,GND*%
X74295000Y34255000D03*
%TO.P,J1,4*%
X74295000Y30515000D03*
%TO.P,J1,5*%
%TO.N,Net-(J1-Pad5)*%
X76835000Y34255000D03*
%TO.P,J1,6*%
%TO.N,Net-(J1-Pad6)*%
X76835000Y30515000D03*
%TO.P,J1,7*%
%TO.N,Net-(J1-Pad7)*%
X79375000Y34255000D03*
%TO.P,J1,8*%
%TO.N,Net-(J1-Pad8)*%
X79375000Y30515000D03*
%TD*%
D17*
%TO.N,GND*%
X71755000Y26035000D02*
X71755000Y24765000D01*
X74295000Y28575000D02*
X71755000Y26035000D01*
X74295000Y31115000D02*
X74295000Y28575000D01*
X83185000Y24765000D02*
X71755000Y24765000D01*
X84455000Y26035000D02*
X83185000Y24765000D01*
X90805000Y26035000D02*
X84455000Y26035000D01*
X71755000Y24765000D02*
X71755000Y22225000D01*
X71755000Y22225000D02*
X71755000Y19685000D01*
X71755000Y16390000D02*
X68065000Y12700000D01*
X71755000Y19685000D02*
X71755000Y16390000D01*
X68065000Y12700000D02*
X68065000Y5715000D01*
X74295000Y33655000D02*
X74295000Y31115000D01*
%TO.N,Net-(C1-Pad1)*%
X79375000Y12700000D02*
X81280000Y10795000D01*
X75565000Y12700000D02*
X79375000Y12700000D01*
X81280000Y10795000D02*
X83820000Y10795000D01*
X86360000Y8255000D02*
X90805000Y8255000D01*
X83820000Y10795000D02*
X86360000Y8255000D01*
%TO.N,Net-(C2-Pad1)*%
X81280000Y8255000D02*
X81280000Y5715000D01*
X81280000Y5715000D02*
X90805000Y5715000D01*
X75565000Y5715000D02*
X81280000Y5715000D01*
%TO.N,Vcc*%
X116205000Y30480000D02*
X116205000Y33020000D01*
X116205000Y35560000D02*
X116205000Y33020000D01*
X111760000Y26035000D02*
X116205000Y30480000D01*
X106045000Y26035000D02*
X111760000Y26035000D01*
X71755000Y33655000D02*
X71755000Y31115000D01*
X106045000Y26035000D02*
X103505000Y26035000D01*
X103505000Y26035000D02*
X97790000Y31750000D01*
X97790000Y31750000D02*
X97790000Y37465000D01*
X97790000Y37465000D02*
X96520000Y38735000D01*
X96520000Y38735000D02*
X71755000Y38735000D01*
X71755000Y38735000D02*
X71755000Y33655000D01*
%TO.N,Net-(J1-Pad5)*%
X76835000Y36830000D02*
X76835000Y33655000D01*
X93980000Y36830000D02*
X76835000Y36830000D01*
X95250000Y35560000D02*
X93980000Y36830000D01*
X95250000Y32385000D02*
X95250000Y35560000D01*
X93980000Y31115000D02*
X95250000Y32385000D01*
X90805000Y31115000D02*
X93980000Y31115000D01*
%TO.N,Net-(J1-Pad7)*%
X90805000Y33655000D02*
X79375000Y33655000D01*
%TO.N,Net-(J2-Pad1)*%
X112395000Y18415000D02*
X106045000Y18415000D01*
X115570000Y21590000D02*
X112395000Y18415000D01*
%TO.N,Net-(J6-Pad1)*%
X114935000Y15875000D02*
X106045000Y15875000D01*
X115570000Y16510000D02*
X114935000Y15875000D01*
%TO.N,Net-(J7-Pad3)*%
X114935000Y5715000D02*
X106045000Y5715000D01*
%TO.N,Net-(J7-Pad2)*%
X114935000Y8255000D02*
X106045000Y8255000D01*
%TO.N,Net-(J7-Pad1)*%
X114935000Y10795000D02*
X106045000Y10795000D01*
%TD*%
M02*
