M48
; DRILL file {KiCad (5.1.10)-1} date 01/23/22 19:08:21
; FORMAT={-:-/ absolute / metric / decimal}
; #@! TF.CreationDate,2022-01-23T19:08:21-05:00
; #@! TF.GenerationSoftware,Kicad,Pcbnew,(5.1.10)-1
FMAT,2
METRIC
T1C0.800
T2C1.000
%
G90
G05
T1
X68.065Y12.7
X68.065Y5.715
X75.565Y12.7
X75.565Y5.715
X90.805Y33.655
X90.805Y31.115
X90.805Y28.575
X90.805Y26.035
X90.805Y23.495
X90.805Y20.955
X90.805Y18.415
X90.805Y15.875
X90.805Y13.335
X90.805Y10.795
X90.805Y8.255
X90.805Y5.715
X106.045Y33.655
X106.045Y31.115
X106.045Y28.575
X106.045Y26.035
X106.045Y23.495
X106.045Y20.955
X106.045Y18.415
X106.045Y15.875
X106.045Y13.335
X106.045Y10.795
X106.045Y8.255
X106.045Y5.715
X115.57Y21.59
X115.57Y16.51
T2
X71.755Y33.655
X71.755Y31.115
X71.755Y24.765
X71.755Y22.225
X71.755Y19.685
X74.295Y33.655
X74.295Y31.115
X76.835Y33.655
X76.835Y31.115
X79.375Y33.655
X79.375Y31.115
X81.28Y10.795
X81.28Y8.255
X114.935Y10.795
X114.935Y8.255
X114.935Y5.715
X116.205Y35.56
X116.205Y33.02
X116.205Y30.48
T0
M30
