M48
; DRILL file {KiCad (5.1.10)-1} date 01/27/22 18:00:41
; FORMAT={-:-/ absolute / metric / decimal}
; #@! TF.CreationDate,2022-01-27T18:00:41-05:00
; #@! TF.GenerationSoftware,Kicad,Pcbnew,(5.1.10)-1
FMAT,2
METRIC
T1C0.700
T2C0.800
T3C0.900
T4C1.000
%
G90
G05
T1
X59.69Y-45.72
X59.69Y-50.8
X64.135Y-45.72
X64.135Y-50.8
X94.615Y-46.99
X99.695Y-46.99
T2
X47.11Y-59.69
X47.11Y-66.675
X54.61Y-59.69
X54.61Y-66.675
X69.85Y-38.735
X69.85Y-41.275
X69.85Y-43.815
X69.85Y-46.355
X69.85Y-48.895
X69.85Y-51.435
X69.85Y-53.975
X69.85Y-56.515
X69.85Y-59.055
X69.85Y-61.595
X69.85Y-64.135
X69.85Y-66.675
X85.09Y-38.735
X85.09Y-41.275
X85.09Y-43.815
X85.09Y-46.355
X85.09Y-48.895
X85.09Y-51.435
X85.09Y-53.975
X85.09Y-56.515
X85.09Y-59.055
X85.09Y-61.595
X85.09Y-64.135
X85.09Y-66.675
T3
X99.695Y-51.435
X99.695Y-53.975
T4
X46.99Y-47.625
X46.99Y-50.165
X46.99Y-52.705
X50.8Y-36.195
X50.8Y-38.735
X53.34Y-36.195
X53.34Y-38.735
X53.975Y-51.435
X55.88Y-36.195
X55.88Y-38.735
X58.42Y-36.195
X58.42Y-38.735
X60.325Y-61.595
X60.325Y-64.135
X93.98Y-61.595
X93.98Y-64.135
X93.98Y-66.675
X94.615Y-50.8
X94.615Y-55.88
X95.25Y-36.83
X95.25Y-39.37
X95.25Y-41.91
T0
M30
